# xmcd CD Database Entry
#
# Track frame offsets:
# 150
# 17205
# 37385
# 56017
# 77147
# 97329
# 114605
# 130052
# 156792
# 176787
# 187162
# 209015
# 229115
#
# Disc length: 3257 seconds
#
# Revision: 3
# Processed by: cddbd v1.4b41PL1 Copyright (c) Steve Scherf et al.
# Submitted via: tcd 2.0b
#
DISCID=c50cb70d
DTITLE=Chosen - Abakhethwa
DYEAR=1900
DGENRE=
TTITLE0=Everything I Desire
TTITLE1=We Can Live Together (Remix)
TTITLE2=No More Pain
TTITLE3=Strength Of My Heart
TTITLE4=Come As You Are*
TTITLE5=When I Remember
TTITLE6=Easy Does It (Remix)
TTITLE7=The Greatest Love Of All
TTITLE8=Keep Holding On
TTITLE9=Sengiyohamba
TTITLE10=Thank You Lord
TTITLE11=We Can Live Together (Original)
TTITLE12=Easy Does It (Original)
EXTD=
EXTT0=
EXTT1=
EXTT2=
EXTT3=
EXTT4=
EXTT5=
EXTT6=
EXTT7=
EXTT8=
EXTT9=
EXTT10=
EXTT11=
EXTT12=
PLAYORDER=
